2025/05/28 22:27:31 Storage server listening on localhost:8092
2025/05/28 22:27:31 Storage server listening on localhost:8091
2025/05/28 22:27:31 Storage server listening on localhost:8090
2025/05/28 22:27:31 Storage server listening on localhost:8094
2025/05/28 22:27:31 Storage server listening on localhost:8095
2025/05/28 22:27:31 Storage server listening on localhost:8096
2025/05/28 22:27:31 Storage server listening on localhost:8097
2025/05/28 22:27:31 Storage server listening on localhost:8093
Creating metadata service of type sqlite with options ./tmp/metadata.db
Creating content service of type nw with options localhost:8081,localhost:8090,localhost:8091,localhost:8092
Starting web server on 0.0.0.0:8080
Starting admin service on localhost:8081
ffmpeg version 7.1.1 Copyright (c) 2000-2025 the FFmpeg developers
  built with Apple clang version 16.0.0 (clang-1600.0.26.6)
  configuration: --prefix=/opt/homebrew/Cellar/ffmpeg/7.1.1_2 --enable-shared --enable-pthreads --enable-version3 --cc=clang --host-cflags= --host-ldflags='-Wl,-ld_classic' --enable-ffplay --enable-gnutls --enable-gpl --enable-libaom --enable-libaribb24 --enable-libbluray --enable-libdav1d --enable-libharfbuzz --enable-libjxl --enable-libmp3lame --enable-libopus --enable-librav1e --enable-librist --enable-librubberband --enable-libsnappy --enable-libsrt --enable-libssh --enable-libsvtav1 --enable-libtesseract --enable-libtheora --enable-libvidstab --enable-libvmaf --enable-libvorbis --enable-libvpx --enable-libwebp --enable-libx264 --enable-libx265 --enable-libxml2 --enable-libxvid --enable-lzma --enable-libfontconfig --enable-libfreetype --enable-frei0r --enable-libass --enable-libopencore-amrnb --enable-libopencore-amrwb --enable-libopenjpeg --enable-libspeex --enable-libsoxr --enable-libzmq --enable-libzimg --disable-libjack --disable-indev=jack --enable-videotoolbox --enable-audiotoolbox --enable-neon
  libavutil      59. 39.100 / 59. 39.100
  libavcodec     61. 19.101 / 61. 19.101
  libavformat    61.  7.100 / 61.  7.100
  libavdevice    61.  3.100 / 61.  3.100
  libavfilter    10.  4.100 / 10.  4.100
  libswscale      8.  3.100 /  8.  3.100
  libswresample   5.  3.100 /  5.  3.100
  libpostproc    58.  3.100 / 58.  3.100
Input #0, mov,mp4,m4a,3gp,3g2,mj2, from 'tmp/temp/PIKACHU.mp4':
  Metadata:
    major_brand     : isom
    minor_version   : 512
    compatible_brands: isomiso2avc1mp41
    creation_time   : 1970-01-01T00:00:00.000000Z
    encoder         : Lavf53.24.2
  Duration: 00:00:13.50, start: 0.000000, bitrate: 1248 kb/s
  Stream #0:0[0x1](und): Video: h264 (Main) (avc1 / 0x31637661), yuv420p(progressive), 1280x720 [SAR 1:1 DAR 16:9], 862 kb/s, 25 fps, 25 tbr, 12800 tbn (default)
      Metadata:
        creation_time   : 1970-01-01T00:00:00.000000Z
        handler_name    : VideoHandler
        vendor_id       : [0][0][0][0]
  Stream #0:1[0x2](und): Audio: aac (LC) (mp4a / 0x6134706D), 48000 Hz, 5.1, fltp, 381 kb/s (default)
      Metadata:
        creation_time   : 1970-01-01T00:00:00.000000Z
        handler_name    : SoundHandler
        vendor_id       : [0][0][0][0]
Stream mapping:
  Stream #0:0 -> #0:0 (h264 (native) -> h264 (libx264))
  Stream #0:1 -> #0:1 (aac (native) -> aac (native))
Press [q] to stop, [?] for help
[libx264 @ 0x121f33810] using SAR=1/1
[libx264 @ 0x121f33810] using cpu capabilities: ARMv8 NEON
[libx264 @ 0x121f33810] profile High, level 3.1, 4:2:0, 8-bit
[libx264 @ 0x121f33810] 264 - core 164 r3108 31e19f9 - H.264/MPEG-4 AVC codec - Copyleft 2003-2023 - http://www.videolan.org/x264.html - options: cabac=1 ref=3 deblock=1:0:0 analyse=0x3:0x113 me=hex subme=7 psy=1 psy_rd=1.00:0.00 mixed_ref=1 me_range=16 chroma_me=1 trellis=1 8x8dct=1 cqm=0 deadzone=21,11 fast_pskip=1 chroma_qp_offset=-2 threads=16 lookahead_threads=2 sliced_threads=0 nr=0 decimate=1 interlaced=0 bluray_compat=0 constrained_intra=0 bframes=1 b_pyramid=0 b_adapt=1 b_bias=0 direct=1 weightb=1 open_gop=0 weightp=2 keyint=120 keyint_min=61 scenecut=0 intra_refresh=0 rc_lookahead=40 rc=abr mbtree=1 bitrate=3000 ratetol=1.0 qcomp=0.60 qpmin=0 qpmax=69 qpstep=4 ip_ratio=1.40 aq=1:1.00
[dash @ 0x121f32f60] Opening 'tmp/PIKACHU/init-0.m4s' for writing
[dash @ 0x121f32f60] Opening 'tmp/PIKACHU/init-1.m4s' for writing
Output #0, dash, to 'tmp/PIKACHU/manifest.mpd':
  Metadata:
    major_brand     : isom
    minor_version   : 512
    compatible_brands: isomiso2avc1mp41
    encoder         : Lavf61.7.100
  Stream #0:0(und): Video: h264, yuv420p(tv, progressive), 1280x720 [SAR 1:1 DAR 16:9], q=2-31, 3000 kb/s, 25 fps, 12800 tbn (default)
      Metadata:
        creation_time   : 1970-01-01T00:00:00.000000Z
        handler_name    : VideoHandler
        vendor_id       : [0][0][0][0]
        encoder         : Lavc61.19.101 libx264
      Side data:
        cpb: bitrate max/min/avg: 0/0/3000000 buffer size: 0 vbv_delay: N/A
  Stream #0:1(und): Audio: aac (LC), 48000 Hz, 5.1, fltp, 128 kb/s (default)
      Metadata:
        creation_time   : 1970-01-01T00:00:00.000000Z
        handler_name    : SoundHandler
        vendor_id       : [0][0][0][0]
        encoder         : Lavc61.19.101 aac
[dash @ 0x121f32f60] Opening 'tmp/PIKACHU/chunk-0-00001.m4s.tmp' for writing
[dash @ 0x121f32f60] Opening 'tmp/PIKACHU/chunk-1-00001.m4s.tmp' for writing
[dash @ 0x121f32f60] Opening 'tmp/PIKACHU/manifest.mpd.tmp' for writing
[dash @ 0x121f32f60] Opening 'tmp/PIKACHU/chunk-1-00002.m4s.tmp' for writing
frame=  106 fps=0.0 q=21.0 size=N/A time=00:00:04.20 bitrate=N/A speed=8.32x    [dash @ 0x121f32f60] Opening 'tmp/PIKACHU/manifest.mpd.tmp' for writing
[dash @ 0x121f32f60] Opening 'tmp/PIKACHU/chunk-0-00002.m4s.tmp' for writing
[dash @ 0x121f32f60] Opening 'tmp/PIKACHU/manifest.mpd.tmp' for writing
[dash @ 0x121f32f60] Opening 'tmp/PIKACHU/chunk-1-00003.m4s.tmp' for writing
[dash @ 0x121f32f60] Opening 'tmp/PIKACHU/manifest.mpd.tmp' for writing
[dash @ 0x121f32f60] Opening 'tmp/PIKACHU/chunk-0-00003.m4s.tmp' for writing
frame=  286 fps=283 q=15.0 size=N/A time=N/A bitrate=N/A speed=N/A    [dash @ 0x121f32f60] Opening 'tmp/PIKACHU/manifest.mpd.tmp' for writing
[dash @ 0x121f32f60] Opening 'tmp/PIKACHU/chunk-1-00004.m4s.tmp' for writing
[dash @ 0x121f32f60] Opening 'tmp/PIKACHU/manifest.mpd.tmp' for writing
[out#0/dash @ 0x121f368a0] video:3644KiB audio:213KiB subtitle:0KiB other streams:0KiB global headers:0KiB muxing overhead: unknown
frame=  337 fps=296 q=-1.0 Lsize=N/A time=00:00:13.44 bitrate=N/A speed=11.8x    
[libx264 @ 0x121f33810] frame I:3     Avg QP:11.57  size:150364
[libx264 @ 0x121f33810] frame P:243   Avg QP:13.26  size: 12559
[libx264 @ 0x121f33810] frame B:91    Avg QP:20.42  size:  2504
[libx264 @ 0x121f33810] consecutive B-frames: 46.0% 54.0%
[libx264 @ 0x121f33810] mb I  I16..4: 15.2% 36.7% 48.1%
[libx264 @ 0x121f33810] mb P  I16..4:  0.9%  1.8%  0.8%  P16..4: 26.1%  7.8%  5.2%  0.0%  0.0%    skip:57.6%
[libx264 @ 0x121f33810] mb B  I16..4:  0.1%  0.2%  0.0%  B16..8: 34.2%  2.5%  0.4%  direct: 0.8%  skip:61.8%  L0:50.0% L1:45.4% BI: 4.7%
[libx264 @ 0x121f33810] final ratefactor: 14.12
[libx264 @ 0x121f33810] 8x8 transform intra:48.5% inter:45.7%
[libx264 @ 0x121f33810] coded y,uvDC,uvAC intra: 70.0% 75.1% 50.2% inter: 11.7% 12.3% 2.2%
[libx264 @ 0x121f33810] i16 v,h,dc,p: 28% 34% 14% 25%
[libx264 @ 0x121f33810] i8 v,h,dc,ddl,ddr,vr,hd,vl,hu: 25% 23% 22%  3%  5%  5%  5%  6%  6%
[libx264 @ 0x121f33810] i4 v,h,dc,ddl,ddr,vr,hd,vl,hu: 25% 19% 15%  6%  7%  7%  6%  9%  6%
[libx264 @ 0x121f33810] i8c dc,h,v,p: 47% 22% 21% 10%
[libx264 @ 0x121f33810] Weighted P-Frames: Y:0.0% UV:0.0%
[libx264 @ 0x121f33810] ref P L0: 88.2%  7.9%  3.3%  0.7%
[libx264 @ 0x121f33810] ref B L0: 98.3%  1.7%
[libx264 @ 0x121f33810] kb/s:2214.09
[aac @ 0x121f931c0] Qavg: 499.143
[MIGRATE-ADD] PIKACHU/chunk-0-00002.m4s from localhost:8092 to localhost:8094
[MIGRATE-ADD] PIKACHU/init-0.m4s from localhost:8092 to localhost:8095
[MIGRATE-ADD] PIKACHU/init-0.m4s from localhost:8095 to localhost:8097
[MIGRATE-REMOVE] PIKACHU/chunk-0-00002.m4s from localhost:8094 to localhost:8097
[MIGRATE-REMOVE] PIKACHU/chunk-0-00002.m4s from localhost:8097 to localhost:8092
[MIGRATE-REMOVE] PIKACHU/init-0.m4s from localhost:8097 to localhost:8092
[MIGRATE-REMOVE] PIKACHU/chunk-1-00001.m4s from localhost:8090 to localhost:8091
[MIGRATE-REMOVE] PIKACHU/chunk-1-00003.m4s from localhost:8090 to localhost:8091
[MIGRATE-REMOVE] PIKACHU/chunk-0-00001.m4s from localhost:8091 to localhost:8092
[MIGRATE-REMOVE] PIKACHU/chunk-0-00003.m4s from localhost:8091 to localhost:8092
[MIGRATE-REMOVE] PIKACHU/chunk-1-00001.m4s from localhost:8091 to localhost:8092
[MIGRATE-REMOVE] PIKACHU/chunk-1-00002.m4s from localhost:8091 to localhost:8092
[MIGRATE-REMOVE] PIKACHU/chunk-1-00003.m4s from localhost:8091 to localhost:8092
[MIGRATE-REMOVE] PIKACHU/chunk-1-00004.m4s from localhost:8091 to localhost:8092
[MIGRATE-REMOVE] PIKACHU/init-1.m4s from localhost:8091 to localhost:8092
[MIGRATE-REMOVE] PIKACHU/manifest.mpd from localhost:8091 to localhost:8092
[MIGRATE-ADD] PIKACHU/chunk-1-00001.m4s from localhost:8092 to localhost:8090
[MIGRATE-ADD] PIKACHU/chunk-1-00003.m4s from localhost:8092 to localhost:8090
[MIGRATE-ADD] PIKACHU/chunk-0-00001.m4s from localhost:8092 to localhost:8091
[MIGRATE-ADD] PIKACHU/chunk-0-00003.m4s from localhost:8092 to localhost:8091
[MIGRATE-ADD] PIKACHU/chunk-1-00002.m4s from localhost:8092 to localhost:8091
[MIGRATE-ADD] PIKACHU/chunk-1-00004.m4s from localhost:8092 to localhost:8091
[MIGRATE-ADD] PIKACHU/init-1.m4s from localhost:8092 to localhost:8091
[MIGRATE-ADD] PIKACHU/manifest.mpd from localhost:8092 to localhost:8091
signal: terminated
signal: terminated
signal: terminated
signal: terminated
signal: terminated
signal: terminated
signal: terminated
signal: terminated
signal: terminated
2025/05/28 22:28:07 Storage server listening on localhost:8090
2025/05/28 22:28:07 Storage server listening on localhost:8092
2025/05/28 22:28:07 Storage server listening on localhost:8091
Creating metadata service of type sqlite with options ./tmp/metadata.db
Creating content service of type nw with options localhost:8081,localhost:8090,localhost:8091,localhost:8092
Starting web server on 0.0.0.0:8080
Starting admin service on localhost:8081
signal: terminated
signal: terminated
signal: terminated
signal: terminated
